<svg width="18" height="18" viewBox="0 0 18 18" fill="none" xmlns="http://www.w3.org/2000/svg">
<path fill-rule="evenodd" clip-rule="evenodd" d="M13.35 7.35029L10.35 9.7503C9.975 10.0503 9.525 10.2003 9 10.2003C8.55 10.2003 8.1 10.0503 7.65 9.7503L4.65 7.27529C4.425 7.05029 4.35 6.75029 4.575 6.45029C4.8 6.15029 5.1 6.15029 5.4 6.37529L8.4 8.7753C8.775 9.0753 9.3 9.0753 9.6 8.7753L12.6 6.37529C12.825 6.15029 13.2 6.22529 13.425 6.45029C13.65 6.75029 13.575 7.12529 13.35 7.35029ZM12.3 2.55029H5.7C3.525 2.55029 1.875 4.35029 1.875 6.67529V11.3253C1.875 12.5253 2.325 13.6503 3.075 14.4003C3.75 15.0753 4.65 15.4503 5.7 15.4503H12.3C13.275 15.4503 14.175 15.0753 14.925 14.4003C15.675 13.6503 16.125 12.5253 16.125 11.3253V6.67529C16.125 4.35029 14.475 2.55029 12.3 2.55029Z" fill="white"/>
</svg>
