<svg width="18" height="19" viewBox="0 0 18 19" fill="none" xmlns="http://www.w3.org/2000/svg">
<path fill-rule="evenodd" clip-rule="evenodd" d="M10.4678 6.17459C10.5301 6.11534 10.6096 6.08159 10.6876 6.08159H12.7126C12.9203 6.08159 13.0876 5.91359 13.0876 5.70659V3.00659C13.0876 2.79959 12.9203 2.63159 12.7126 2.63159H10.6876C9.70806 2.63159 8.74206 3.02909 8.03556 3.72434C7.3276 4.43684 6.9376 5.38034 6.9376 6.38159V8.03235H5.2876C5.07985 8.03235 4.9126 8.1996 4.9126 8.40735V11.1066C4.9126 11.3143 5.07985 11.4816 5.2876 11.4816H6.9376V16.5066C6.9376 16.7144 7.1056 16.8816 7.3126 16.8816H10.0126C10.2196 16.8816 10.3876 16.7144 10.3876 16.5066V11.4816H12.7126C12.9203 11.4816 13.0876 11.3143 13.0876 11.1066V8.40735C13.0876 8.1996 12.9203 8.03235 12.7126 8.03235H10.3876V6.38159C10.3876 6.30059 10.4191 6.22409 10.4678 6.17459Z" fill="white"/>
</svg>
