<svg width="18" height="18" viewBox="0 0 18 18" fill="none" xmlns="http://www.w3.org/2000/svg">
<path d="M9.00001 16.5C9.9851 16.5012 10.9607 16.3078 11.8708 15.9308C12.7809 15.5538 13.6076 15.0007 14.3033 14.3033C15.0007 13.6076 15.5538 12.7809 15.9308 11.8708C16.3078 10.9607 16.5012 9.9851 16.5 9.00001C16.5012 8.01491 16.3078 7.03929 15.9308 6.12919C15.5538 5.21909 15.0007 4.39245 14.3033 3.69676C13.6076 2.99932 12.7809 2.44621 11.8708 2.06922C10.9607 1.69223 9.9851 1.49879 9.00001 1.50001C8.01491 1.49879 7.03929 1.69223 6.12919 2.06922C5.21909 2.44621 4.39245 2.99932 3.69676 3.69676C2.99932 4.39245 2.44621 5.21909 2.06922 6.12919C1.69223 7.03929 1.49879 8.01491 1.50001 9.00001C1.49879 9.9851 1.69223 10.9607 2.06922 11.8708C2.44621 12.7809 2.99932 13.6076 3.69676 14.3033C4.39245 15.0007 5.21909 15.5538 6.12919 15.9308C7.03929 16.3078 8.01491 16.5012 9.00001 16.5Z" stroke="white" stroke-width="2" stroke-linejoin="round"/>
<path d="M9 10.7344V9.23438C9.44501 9.23438 9.88002 9.10242 10.25 8.85518C10.62 8.60795 10.9084 8.25655 11.0787 7.84541C11.249 7.43428 11.2936 6.98188 11.2068 6.54542C11.12 6.10897 10.9057 5.70805 10.591 5.39339C10.2763 5.07872 9.87541 4.86443 9.43895 4.77761C9.0025 4.69079 8.5501 4.73535 8.13896 4.90565C7.72783 5.07594 7.37643 5.36433 7.12919 5.73434C6.88196 6.10435 6.75 6.53937 6.75 6.98438" stroke="white" stroke-width="2" stroke-linecap="round" stroke-linejoin="round"/>
<path fill-rule="evenodd" clip-rule="evenodd" d="M9 14.1094C9.24864 14.1094 9.4871 14.0106 9.66291 13.8348C9.83873 13.659 9.9375 13.4205 9.9375 13.1719C9.9375 12.9232 9.83873 12.6848 9.66291 12.509C9.4871 12.3331 9.24864 12.2344 9 12.2344C8.75136 12.2344 8.5129 12.3331 8.33709 12.509C8.16127 12.6848 8.0625 12.9232 8.0625 13.1719C8.0625 13.4205 8.16127 13.659 8.33709 13.8348C8.5129 14.0106 8.75136 14.1094 9 14.1094Z" fill="white"/>
</svg>
