<svg width="18" height="19" viewBox="0 0 18 19" fill="none" xmlns="http://www.w3.org/2000/svg">
<path fill-rule="evenodd" clip-rule="evenodd" d="M8.88345 7.94141C7.74495 7.94141 6.81866 8.86616 6.81866 10.0039C6.81866 11.1417 7.74495 12.0664 8.88345 12.0664C10.022 12.0664 10.9475 11.1417 10.9475 10.0039C10.9475 8.86616 10.022 7.94141 8.88345 7.94141Z" fill="white"/>
<path fill-rule="evenodd" clip-rule="evenodd" d="M12.648 7.06334C12.2205 7.06334 11.8717 6.71684 11.8717 6.29159C11.8717 5.86484 12.2205 5.51834 12.648 5.51834C13.0755 5.51834 13.4235 5.86484 13.4235 6.29159C13.4235 6.71684 13.0755 7.06334 12.648 7.06334ZM8.883 13.1916C7.125 13.1916 5.694 11.7621 5.694 10.0041C5.694 8.2461 7.125 6.81659 8.883 6.81659C10.6418 6.81659 12.072 8.2461 12.072 10.0041C12.072 11.7621 10.6418 13.1916 8.883 13.1916ZM12.1627 2.63159H5.8365C3.46725 2.63159 1.875 4.29809 1.875 6.77909V12.7341C1.875 15.2143 3.46725 16.8816 5.8365 16.8816H12.162C14.532 16.8816 16.125 15.2143 16.125 12.7341V6.77909C16.125 4.29809 14.5327 2.63159 12.1627 2.63159Z" fill="white"/>
</svg>
