<svg width="18" height="18" viewBox="0 0 18 18" fill="none" xmlns="http://www.w3.org/2000/svg">
<path fill-rule="evenodd" clip-rule="evenodd" d="M9.1875 10.1212C8.05575 10.1212 7.13476 9.20097 7.13476 8.06922C7.13476 6.93747 8.05575 6.01647 9.1875 6.01647C10.3193 6.01647 11.2395 6.93747 11.2395 8.06922C11.2395 9.20097 10.3193 10.1212 9.1875 10.1212ZM13.398 3.48897C12.2498 2.30472 10.7543 1.65222 9.1875 1.65222C7.61925 1.65222 6.12376 2.30472 4.97476 3.48972C3.80851 4.69272 3.16801 6.30897 3.21826 7.92447C3.36001 12.5025 8.7525 16.0672 8.98275 16.2165L9.1845 16.3477L9.3885 16.2187C9.618 16.0732 15.0143 12.5947 15.1568 7.92372C15.2063 6.30897 14.565 4.69197 13.398 3.48897Z" fill="white"/>
</svg>
